<?xml version="1.0" encoding="UTF-8"?>
<svg id="uuid-4e7d4c1c-2fb8-4dbe-a83d-e06589ca67e2" data-name="Layer_1" xmlns="http://www.w3.org/2000/svg" viewBox="0 0 440 440">
  <defs>
    <style>
      .uuid-2bb99c80-8d1b-4f46-95b9-2bb237cce2a8 {
        fill: #ff0700;
      }

      .uuid-7dc31954-329c-440a-843c-2600f9dae49b {
        fill: #fff;
      }
    </style>
  </defs>
  <circle class="uuid-2bb99c80-8d1b-4f46-95b9-2bb237cce2a8" cx="220" cy="220" r="220"/>
  <g>
    <path class="uuid-7dc31954-329c-440a-843c-2600f9dae49b" d="M313.03,249.31c0,2.45,0,4.55,0,6.64,0,14.52-.01,29.04.01,43.56.01,8.7,1.5,10.11,10.56,10.13,6.2.01,12.41.03,18.61-.01,7.99-.05,9.74-1.79,9.75-9.81.02-29.63.01-59.26.01-88.9,0-31.4.01-62.8-.01-94.19,0-7.99-1.8-9.77-9.75-9.82-6.4-.04-12.81-.04-19.21,0-8.24.04-9.92,1.63-9.94,9.56-.04,14.72-.02,29.44-.02,44.15,0,2.1,0,4.19,0,6.48h-52.79c-.13-1.62-.27-2.77-.31-3.91-.31-10.51-.6-10.83-11.34-10.85-20.81-.03-41.63-.02-62.44-.02-9.8,0-10.48.49-10.56,10.33-.03,3.91-1.4,5.17-5.25,5-5.59-.24-11.21-.06-16.81-.06-10.14,0-20.29,0-31.15,0,0-2.85,0-4.95,0-7.05,0-14.72.03-29.44,0-44.15-.02-7.72-1.74-9.44-9.4-9.49-6.6-.04-13.21-.04-19.81,0-7.94.04-9.7,1.81-9.71,9.85-.03,12.56,0,25.12,0,37.68,0,48.47,0,96.94.01,145.41,0,7.95,1.81,9.74,9.78,9.78,6.6.03,13.21.04,19.81,0,7.43-.06,9.27-1.8,9.31-8.98.06-11.38.02-22.76.02-34.15,0-5.63,0-11.26,0-17.05h53.14c0,3.01.06,5.53-.01,8.04-.12,4.39,2.12,6.7,6.47,6.71,23.82.05,47.63.04,71.45-.02,4.38-.01,6.58-2.34,6.49-6.7-.06-2.66-.01-5.32-.01-8.16h53.11ZM305.24,120.96h-174.87v38.97h37.35c1.79-11.66,5.17-14.54,16.64-14.55,21.42-.02,42.84,0,64.27,0,14.22,0,16.02,1.34,19.46,14.61h37.15v-39.02ZM130.18,295.6h174.87v-38.96h-37.34c-1.81,11.66-5.19,14.55-16.66,14.56-21.42.02-42.84,0-64.26,0-14.08,0-15.95-1.39-19.48-14.63h-37.13v39.02ZM75.7,120.56c-11.49,0-22.64-.17-33.77.09-4.1.1-6.55,2.71-6.55,6.95-.02,21.94-.14,43.89.23,65.83.04,2.16,3.1,6.02,4.91,6.11,11.68.56,23.4.29,35.2.29v-79.26ZM359.71,199.93c11.77,0,22.93.09,34.09-.05,4.1-.05,6.2-2.69,6.21-6.51.09-21.95.05-43.89.04-65.84,0-3.95-2.17-6.68-6.01-6.78-11.33-.3-22.68-.11-34.33-.11v79.28ZM75.7,216.64c-11.69,0-22.85-.11-34,.05-4.41.06-6.32,2.91-6.33,7.01-.02,21.75-.02,43.5,0,65.25,0,4.25,2.42,6.85,6.54,6.94,11.14.25,22.29.09,33.78.09v-79.35ZM359.68,216.61v79.35c11.55,0,22.89.18,34.22-.1,3.81-.1,6.14-2.71,6.15-6.68.03-21.95.05-43.89-.02-65.84-.01-4.15-2.31-6.67-6.68-6.7-10.97-.08-21.95-.03-33.66-.03Z"/>
    <path d="M313.03,249.31h-53.11c0,2.84-.05,5.5.01,8.16.09,4.36-2.11,6.69-6.49,6.7-23.82.06-47.63.08-71.45.02-4.35,0-6.6-2.32-6.47-6.71.07-2.51.01-5.02.01-8.04h-53.14c0,5.79,0,11.42,0,17.05,0,11.38.05,22.76-.02,34.15-.04,7.19-1.89,8.93-9.31,8.98-6.6.05-13.21.04-19.81,0-7.97-.04-9.78-1.83-9.78-9.78-.02-48.47-.01-96.94-.01-145.41,0-12.56-.02-25.12,0-37.68.02-8.04,1.77-9.81,9.71-9.85,6.6-.04,13.21-.04,19.81,0,7.66.05,9.38,1.77,9.4,9.49.03,14.72,0,29.44,0,44.15,0,2.1,0,4.2,0,7.05,10.86,0,21,0,31.15,0,5.6,0,11.22-.18,16.81.06,3.85.16,5.22-1.09,5.25-5,.08-9.84.76-10.33,10.56-10.33,20.81,0,41.63-.02,62.44.02,10.74.02,11.02.33,11.34,10.85.03,1.15.18,2.29.31,3.91h52.79c0-2.29,0-4.39,0-6.48,0-14.72-.02-29.44.02-44.15.02-7.92,1.71-9.51,9.94-9.56,6.4-.03,12.81-.04,19.21,0,7.95.05,9.74,1.83,9.75,9.82.02,31.4.01,62.8.01,94.19,0,29.63.01,59.26-.01,88.9,0,8.02-1.76,9.76-9.75,9.81-6.2.04-12.41.03-18.61.01-9.06-.02-10.54-1.43-10.56-10.13-.02-14.52,0-29.04-.01-43.56,0-2.1,0-4.19,0-6.64ZM122.77,239.74c16.71,0,33.07.09,49.42-.19,1.13-.02,3.15-2.72,3.17-4.2.22-18.05.09-36.1.2-54.15.02-3.34-1.25-4.52-4.56-4.44-6.4.14-12.81.03-19.21.03-9.56,0-19.11,0-29.02,0v62.94ZM312.66,176.83c-16.7,0-33.06-.09-49.41.19-1.13.02-3.16,2.72-3.18,4.19-.22,18.05-.09,36.1-.2,54.15-.02,3.33,1.25,4.53,4.57,4.46,6.4-.14,12.81-.03,19.21-.03,9.55,0,19.11,0,29.01,0v-62.95ZM186.8,181h16.03v-12.78h-16.03v12.78ZM225.93,168.16h-16.22v12.69h16.22v-12.69ZM248.62,168.28h-16.12v12.67h16.12v-12.67ZM203.1,190.78h-16.24v12.64h16.24v-12.64ZM209.55,203.56h16.15v-12.93h-16.15v12.93ZM232.3,203.45h16.26v-12.71h-16.26v12.71ZM202.95,212.97h-16.05v13h16.05v-13ZM225.73,225.99v-13.05h-16.05v13.05h16.05ZM248.59,213.09h-16.15v12.76h16.15v-12.76ZM202.83,248.38v-12.86h-15.92v12.86h15.92ZM209.46,248.25h16.32v-12.6h-16.32v12.6ZM232.4,248.33h16.04v-12.78h-16.04v12.78Z"/>
    <path class="uuid-7dc31954-329c-440a-843c-2600f9dae49b" d="M122.77,239.74v-62.94c9.91,0,19.46,0,29.02,0,6.4,0,12.81.11,19.21-.03,3.32-.07,4.59,1.1,4.56,4.44-.12,18.05.02,36.1-.2,54.15-.02,1.47-2.04,4.18-3.17,4.2-16.35.27-32.71.19-49.42.19ZM130.17,199.53h37.51v-15.19h-37.51v15.19ZM168.03,217.08h-37.79v15.1h37.79v-15.1Z"/>
    <path class="uuid-7dc31954-329c-440a-843c-2600f9dae49b" d="M312.66,176.83v62.95c-9.91,0-19.46,0-29.01,0-6.4,0-12.81-.1-19.21.03-3.32.07-4.59-1.13-4.57-4.46.11-18.05-.03-36.1.2-54.15.02-1.47,2.05-4.17,3.18-4.19,16.35-.27,32.71-.19,49.41-.19ZM267.55,199.52h37.46v-15.17h-37.46v15.17ZM305.16,232.32v-15.19h-37.53v15.19h37.53Z"/>
    <path class="uuid-7dc31954-329c-440a-843c-2600f9dae49b" d="M186.8,181v-12.78h16.03v12.78h-16.03Z"/>
    <path class="uuid-7dc31954-329c-440a-843c-2600f9dae49b" d="M225.93,168.16v12.69h-16.22v-12.69h16.22Z"/>
    <path class="uuid-7dc31954-329c-440a-843c-2600f9dae49b" d="M248.62,168.28v12.67h-16.12v-12.67h16.12Z"/>
    <path class="uuid-7dc31954-329c-440a-843c-2600f9dae49b" d="M203.1,190.78v12.64h-16.24v-12.64h16.24Z"/>
    <path class="uuid-7dc31954-329c-440a-843c-2600f9dae49b" d="M209.55,203.56v-12.93h16.15v12.93h-16.15Z"/>
    <path class="uuid-7dc31954-329c-440a-843c-2600f9dae49b" d="M232.3,203.45v-12.71h16.26v12.71h-16.26Z"/>
    <path class="uuid-7dc31954-329c-440a-843c-2600f9dae49b" d="M202.95,212.97v13h-16.05v-13h16.05Z"/>
    <path class="uuid-7dc31954-329c-440a-843c-2600f9dae49b" d="M225.73,225.99h-16.05v-13.05h16.05v13.05Z"/>
    <path class="uuid-7dc31954-329c-440a-843c-2600f9dae49b" d="M248.59,213.09v12.76h-16.15v-12.76h16.15Z"/>
    <path class="uuid-7dc31954-329c-440a-843c-2600f9dae49b" d="M202.83,248.38h-15.92v-12.86h15.92v12.86Z"/>
    <path class="uuid-7dc31954-329c-440a-843c-2600f9dae49b" d="M209.46,248.25v-12.6h16.32v12.6h-16.32Z"/>
    <path class="uuid-7dc31954-329c-440a-843c-2600f9dae49b" d="M232.4,248.33v-12.78h16.04v12.78h-16.04Z"/>
    <path d="M130.17,199.53v-15.19h37.51v15.19h-37.51Z"/>
    <path d="M168.03,217.08v15.1h-37.79v-15.1h37.79Z"/>
    <path d="M267.55,199.52v-15.17h37.46v15.17h-37.46Z"/>
    <path d="M305.16,232.32h-37.53v-15.19h37.53v15.19Z"/>
  </g>
</svg>